<svg width="500" height="400" viewBox="0 0 500 400" fill="none" xmlns="http://www.w3.org/2000/svg">
  <!-- Background Shapes -->
  <g opacity="0.1">
    <circle cx="400" cy="100" r="50" fill="#3B82F6"/>
    <rect x="50" y="200" width="100" height="100" rx="20" fill="#3B82F6"/>
    <path d="M250 300 L300 350 L200 350 Z" fill="#3B82F6"/>
  </g>
  
  <!-- Main Character -->
  <g transform="translate(200, 100)">
    <!-- Body -->
    <path d="M60 120 C60 80 100 50 140 50 C180 50 220 80 220 120 L220 250 L60 250 Z" fill="#E5E7EB"/>
    
    <!-- Head -->
    <circle cx="140" cy="50" r="40" fill="#93C5FD"/>
    
    <!-- Arms -->
    <path d="M220 120 L280 100 L270 140 L220 160" fill="#E5E7EB"/>
    <path d="M60 120 L0 100 L10 140 L60 160" fill="#E5E7EB"/>
  </g>
  
  <!-- Code Elements -->
  <g transform="translate(300, 50)">
    <rect x="0" y="0" width="150" height="20" rx="5" fill="#3B82F6" opacity="0.3"/>
    <rect x="0" y="30" width="100" height="20" rx="5" fill="#3B82F6" opacity="0.3"/>
    <rect x="0" y="60" width="120" height="20" rx="5" fill="#3B82F6" opacity="0.3"/>
  </g>
  
  <!-- Floating Elements -->
  <g transform="translate(50, 50)">
    <circle cx="0" cy="0" r="10" fill="#3B82F6"/>
    <circle cx="30" cy="30" r="8" fill="#3B82F6"/>
    <circle cx="60" cy="0" r="6" fill="#3B82F6"/>
  </g>
</svg>